# xmcd
#
# Track frame offsets:
#	150
#	16747
#	34420
#	53425
#	70400
#	85772
#	102602
#	119052
#	139845
#	157552
#	173057
#	196895
#	210785
#	222432
#
# Disc length: 3249 seconds
#
# Revision: 1
# Processed by: cddbd v1.5.2PL0 Copyright (c) Steve Scherf et al.
# Submitted via: audiograbber 1.83.01
#
DISCID=ba0caf0e
DTITLE=Lee Towers - Country Roads
DYEAR=1999
DGENRE=Nederpop
TTITLE0=Take Me Home Country Roads - [1999]
TTITLE1=The Most Beautiful Girl - [1999]
TTITLE2=Me And Bobby McGee - [1999]
TTITLE3=You Needed Me - [1999]
TTITLE4=Rhinestone Cowboy - [1999]
TTITLE5=The Devil Went Down To Georgia - [1999]
TTITLE6=In Turns Me Inside Out - [1999]
TTITLE7=Back Home Again - [1999]
TTITLE8=Roll On Mississippi - [1999]
TTITLE9=The Hand That Rocks The Cradle - [1999]
TTITLE10=Hotel California - [1999]
TTITLE11=Sundown - [1999]
TTITLE12=Drag 'em Off The Interstate - [1999]
TTITLE13=You Were Always On My Mind - [1999]
EXTD=
EXTT0=
EXTT1=
EXTT2=
EXTT3=
EXTT4=
EXTT5=
EXTT6=
EXTT7=
EXTT8=
EXTT9=
EXTT10=
EXTT11=
EXTT12=
EXTT13=
PLAYORDER=
